<svg xmlns="http://www.w3.org/2000/svg" viewBox="0 0 156.9 150.6" enable-background="new 0 0 156.9 150.6"><style type="text/css">.st0{fill:#B16BB9;}</style><title>lifestage_subnav_allergyfilter</title><path d="M132.6 28.5h18.7c3 0 5.5-2.5 5.5-5.5s-2.5-5.5-5.5-5.5h-18.6C129.9 5.3 117.8-2.2 105.6.6c-8.4 2-14.9 8.5-16.9 16.9H5.5C2.5 17.5 0 20 0 23s2.5 5.5 5.5 5.5h83.4c.2 1 .6 1.9.9 2.8 4.7 11.5 17.9 17.1 29.5 12.4 6.6-2.7 11.5-8.4 13.3-15.2zM56.3 81h95.1c3 0 5.5-2.5 5.5-5.5s-2.5-5.5-5.5-5.5H56.3c-.3-1-.6-2-1-3-4.7-11.6-17.9-17.1-29.5-12.4C19.2 57.3 14.2 63 12.4 70H5.6c-3 0-5.5 2.5-5.5 5.5S2.6 81 5.6 81h6.9c.3 1 .6 2.1 1 3.1 4.7 11.5 17.9 17.1 29.5 12.3 6.6-2.7 11.5-8.5 13.3-15.4zM87 148.9c6.7-2.7 11.6-8.4 13.4-15.4h51c3 0 5.5-2.5 5.5-5.5s-2.5-5.5-5.5-5.5h-51c-.3-1-.6-2-1-3-4.7-11.6-17.9-17.1-29.5-12.4-6.6 2.7-11.6 8.4-13.4 15.4h-51c-3 0-5.5 2.5-5.5 5.5s2.5 5.5 5.5 5.5h51c.3 1 .6 2.1 1 3.1 4.8 11.5 18 17 29.5 12.3z" class="st0"/></svg>